<?xml version="1.0"?>
<svg xmlns="http://www.w3.org/2000/svg" width="512" height="512" viewBox="0 0 128 128"><g><path d="M64,0a64,64,0,1,0,64,64A64.072,64.072,0,0,0,64,0Zm60.22,58.25H95.156C94.992,52.908,94.6,47.616,94,42.47h26.527A60,60,0,0,1,124.22,58.25Zm-9.571-27.28H92.231A104.682,104.682,0,0,0,85.054,7.285,60.808,60.808,0,0,1,114.649,30.97ZM69.75,4.153C74.085,9.3,77.942,18.938,80.491,30.97H69.75Zm-26.8,3.131a104.838,104.838,0,0,0-7.18,23.686H13.351A60.815,60.815,0,0,1,42.948,7.284ZM7.473,42.47H34c-.6,5.148-.993,10.44-1.156,15.78H3.78A60,60,0,0,1,7.473,42.47ZM3.78,69.75H32.844c.163,5.34.551,10.632,1.156,15.78H7.473A60,60,0,0,1,3.78,69.75Zm9.571,27.28H35.768a104.759,104.759,0,0,0,7.183,23.687A60.814,60.814,0,0,1,13.351,97.03Zm44.9,26.816c-4.331-5.151-8.2-14.836-10.741-26.816H58.25Zm3.5.6V95.28A1.75,1.75,0,0,0,60,93.53H45.367a1.751,1.751,0,0,0-1.718,2.084c2.3,11.792,5.9,21.738,10.075,27.995a60.085,60.085,0,0,1-6.144-1.392c-.008-.015-.011-.031-.019-.046-3.663-6.9-6.643-16.3-8.617-27.2a1.75,1.75,0,0,0-1.722-1.438h-26q-1.233-2.2-2.283-4.5H35.979a1.75,1.75,0,0,0,1.735-1.974A180.051,180.051,0,0,1,36.3,67.962a1.751,1.751,0,0,0-1.75-1.712H3.557c-.055-1.5-.055-3,0-4.5H34.548a1.751,1.751,0,0,0,1.75-1.712,180.051,180.051,0,0,1,1.416-19.094,1.75,1.75,0,0,0-1.735-1.974H8.942q1.052-2.3,2.283-4.5h26a1.75,1.75,0,0,0,1.722-1.438c1.965-10.848,4.927-20.221,8.566-27.1.024-.046.037-.094.057-.14a59.628,59.628,0,0,1,6.164-1.4c-4.18,6.254-7.774,16.154-10.082,27.995a1.751,1.751,0,0,0,1.718,2.085H60a1.75,1.75,0,0,0,1.75-1.75V3.557c1.5-.055,3-.055,4.5,0V32.72A1.749,1.749,0,0,0,68,34.47H82.633a1.751,1.751,0,0,0,1.718-2.085C82.043,20.544,78.449,10.644,74.27,4.39a59.822,59.822,0,0,1,6.138,1.39c3.678,6.908,6.667,16.314,8.648,27.252a1.748,1.748,0,0,0,1.721,1.438h26q1.233,2.2,2.282,4.5H92.021a1.75,1.75,0,0,0-1.735,1.974A179.935,179.935,0,0,1,91.7,60.038a1.751,1.751,0,0,0,1.75,1.712h30.992c.055,1.5.055,3,0,4.5H93.451a1.751,1.751,0,0,0-1.75,1.712,179.935,179.935,0,0,1-1.415,19.094,1.75,1.75,0,0,0,1.735,1.974h27.036q-1.05,2.3-2.282,4.5h-26a1.748,1.748,0,0,0-1.721,1.438c-1.981,10.936-4.969,20.347-8.647,27.252a60.008,60.008,0,0,1-6.134,1.389c4.174-6.256,7.776-16.195,10.076-27.994a1.751,1.751,0,0,0-1.718-2.085H68a1.749,1.749,0,0,0-1.75,1.75v29.163C64.746,124.5,63.254,124.5,61.75,124.443ZM58.25,4.154V30.97H47.509C50.058,18.938,53.915,9.3,58.25,4.154ZM120.527,85.53H94c.6-5.146.992-10.438,1.156-15.78H124.22A60,60,0,0,1,120.527,85.53ZM69.75,123.846V97.03H80.491C77.949,109.019,74.081,118.7,69.75,123.846Zm15.292-3.126a104.575,104.575,0,0,0,7.189-23.69h22.418A60.816,60.816,0,0,1,85.042,120.72Z"/><path d="M68,61.75H85.452a1.75,1.75,0,0,0,1.75-1.789,171.3,171.3,0,0,0-1.514-19.479,1.749,1.749,0,0,0-1.733-1.512H68a1.75,1.75,0,0,0-1.75,1.75V60A1.75,1.75,0,0,0,68,61.75Zm1.75-19.28H82.421c.647,5.1,1.061,10.389,1.233,15.78H69.75Z"/><path d="M60,38.97H44.044a1.75,1.75,0,0,0-1.733,1.512A171.833,171.833,0,0,0,40.8,59.961a1.75,1.75,0,0,0,1.75,1.789H60A1.751,1.751,0,0,0,61.75,60V40.72A1.751,1.751,0,0,0,60,38.97ZM58.25,58.25h-13.9c.172-5.39.585-10.683,1.233-15.78H58.25Z"/><path d="M68,89.03H83.955a1.749,1.749,0,0,0,1.733-1.512A171.3,171.3,0,0,0,87.2,68.039a1.75,1.75,0,0,0-1.75-1.789H68A1.75,1.75,0,0,0,66.25,68V87.28A1.75,1.75,0,0,0,68,89.03Zm1.75-19.28h13.9c-.172,5.391-.586,10.684-1.233,15.78H69.75Z"/><path d="M60,66.25H42.548a1.75,1.75,0,0,0-1.75,1.789,171.833,171.833,0,0,0,1.513,19.479,1.75,1.75,0,0,0,1.733,1.512H60a1.751,1.751,0,0,0,1.75-1.75V68A1.751,1.751,0,0,0,60,66.25ZM58.25,85.53H45.579c-.648-5.1-1.061-10.39-1.233-15.78h13.9Z"/></g></svg>
