<svg id="Capa_1" enable-background="new 0 0 510 510" height="512" viewBox="0 0 510 510" width="512" xmlns="http://www.w3.org/2000/svg"><path d="m464.854 152h-146.854v-64h-94v32c-12.451 0-211.547 0-224 0v254h32.461c3.451 27.032 26.585 48 54.539 48s51.088-20.968 54.539-48h226.922c3.451 27.032 26.585 48 54.539 48s51.088-20.968 54.539-48h32.461v-117.666zm-322.854-2h82v34h-82zm0 64h82v34h-82zm-112-64h82v34h-82zm0 64h82v34h-82zm57 178c-13.785 0-25-11.215-25-25s11.215-25 25-25 25 11.215 25 25-11.215 25-25 25zm201-48h-151.059c-19.702-42.609-80.186-42.595-99.882 0h-7.059v-66h224c0-21.931 0-137.604 0-160h34zm94-162h63.146l28.559 66h-91.705zm41 210c-13.785 0-25-11.215-25-25s11.215-25 25-25 25 11.215 25 25-11.215 25-25 25zm57-48h-7.059c-19.702-42.609-80.186-42.595-99.882 0h-55.059v-162h34v96h128z"/></svg>